<mxfile host="www.draw.io" modified="2020-02-12T20:49:10.694Z" agent="Mozilla/5.0 (Windows NT 10.0; Win64; x64; rv:68.0) Gecko/20100101 Firefox/68.0" etag="O1B80Qh75yq4lWIHah1A" version="12.6.8" type="github">
  <diagram id="8Jl6C5Lkjva-eGGLiPZM" name="Page-1">
    <mxGraphModel dx="1483" dy="911" grid="1" gridSize="10" guides="1" tooltips="1" connect="1" arrows="1" fold="1" page="1" pageScale="1" pageWidth="1100" pageHeight="850" math="0" shadow="0">
      <root>
        <mxCell id="0"/>
        <mxCell id="1" parent="0"/>
        <mxCell id="02fX__gRrcT_8yHX7DRO-1" value="Airline" style="rounded=0;whiteSpace=wrap;html=1;" vertex="1" parent="1">
          <mxGeometry x="440" y="50" width="120" height="60" as="geometry"/>
        </mxCell>
        <mxCell id="02fX__gRrcT_8yHX7DRO-2" value="CrewList" style="rounded=0;whiteSpace=wrap;html=1;" vertex="1" parent="1">
          <mxGeometry x="260" y="140" width="120" height="60" as="geometry"/>
        </mxCell>
        <mxCell id="02fX__gRrcT_8yHX7DRO-3" value="AircraftList" style="rounded=0;whiteSpace=wrap;html=1;" vertex="1" parent="1">
          <mxGeometry x="70" y="140" width="120" height="60" as="geometry"/>
        </mxCell>
        <mxCell id="02fX__gRrcT_8yHX7DRO-4" value="FlightList" style="rounded=0;whiteSpace=wrap;html=1;" vertex="1" parent="1">
          <mxGeometry x="630" y="140" width="120" height="60" as="geometry"/>
        </mxCell>
        <mxCell id="02fX__gRrcT_8yHX7DRO-5" value="PassengerList" style="rounded=0;whiteSpace=wrap;html=1;" vertex="1" parent="1">
          <mxGeometry x="870" y="140" width="120" height="60" as="geometry"/>
        </mxCell>
        <mxCell id="02fX__gRrcT_8yHX7DRO-8" value="Aircraft" style="rounded=0;whiteSpace=wrap;html=1;" vertex="1" parent="1">
          <mxGeometry x="70" y="290" width="120" height="60" as="geometry"/>
        </mxCell>
        <mxCell id="02fX__gRrcT_8yHX7DRO-9" value="Crew" style="rounded=0;whiteSpace=wrap;html=1;" vertex="1" parent="1">
          <mxGeometry x="260" y="320" width="120" height="60" as="geometry"/>
        </mxCell>
        <mxCell id="02fX__gRrcT_8yHX7DRO-10" value="Flight" style="rounded=0;whiteSpace=wrap;html=1;" vertex="1" parent="1">
          <mxGeometry x="630" y="290" width="120" height="60" as="geometry"/>
        </mxCell>
        <mxCell id="02fX__gRrcT_8yHX7DRO-11" value="Passenger" style="rounded=0;whiteSpace=wrap;html=1;" vertex="1" parent="1">
          <mxGeometry x="880" y="290" width="120" height="60" as="geometry"/>
        </mxCell>
        <mxCell id="02fX__gRrcT_8yHX7DRO-12" value="" style="endArrow=none;html=1;" edge="1" parent="1">
          <mxGeometry width="50" height="50" relative="1" as="geometry">
            <mxPoint x="560" y="60" as="sourcePoint"/>
            <mxPoint x="930" y="60" as="targetPoint"/>
          </mxGeometry>
        </mxCell>
        <mxCell id="02fX__gRrcT_8yHX7DRO-28" value="Maintains a" style="text;html=1;align=center;verticalAlign=middle;resizable=0;points=[];labelBackgroundColor=#ffffff;" vertex="1" connectable="0" parent="02fX__gRrcT_8yHX7DRO-12">
          <mxGeometry x="-0.1946" y="-2" relative="1" as="geometry">
            <mxPoint as="offset"/>
          </mxGeometry>
        </mxCell>
        <mxCell id="02fX__gRrcT_8yHX7DRO-13" value="" style="endArrow=none;html=1;" edge="1" parent="1">
          <mxGeometry width="50" height="50" relative="1" as="geometry">
            <mxPoint x="929.5" y="140" as="sourcePoint"/>
            <mxPoint x="929.5" y="60" as="targetPoint"/>
          </mxGeometry>
        </mxCell>
        <mxCell id="02fX__gRrcT_8yHX7DRO-14" value="" style="endArrow=none;html=1;exitX=0.5;exitY=0;exitDx=0;exitDy=0;" edge="1" parent="1" source="02fX__gRrcT_8yHX7DRO-8">
          <mxGeometry width="50" height="50" relative="1" as="geometry">
            <mxPoint x="129.5" y="250" as="sourcePoint"/>
            <mxPoint x="129.5" y="200" as="targetPoint"/>
            <Array as="points">
              <mxPoint x="130" y="220"/>
            </Array>
          </mxGeometry>
        </mxCell>
        <mxCell id="02fX__gRrcT_8yHX7DRO-21" value="&lt;div&gt;Collection&lt;/div&gt;&lt;div&gt;of&lt;br&gt;&lt;/div&gt;" style="text;html=1;align=center;verticalAlign=middle;resizable=0;points=[];labelBackgroundColor=#ffffff;" vertex="1" connectable="0" parent="02fX__gRrcT_8yHX7DRO-14">
          <mxGeometry x="0.5554" y="16" relative="1" as="geometry">
            <mxPoint x="14" y="16" as="offset"/>
          </mxGeometry>
        </mxCell>
        <mxCell id="02fX__gRrcT_8yHX7DRO-15" value="" style="endArrow=none;html=1;entryX=0.008;entryY=0.617;entryDx=0;entryDy=0;entryPerimeter=0;" edge="1" parent="1" target="02fX__gRrcT_8yHX7DRO-1">
          <mxGeometry width="50" height="50" relative="1" as="geometry">
            <mxPoint x="330" y="90" as="sourcePoint"/>
            <mxPoint x="390" y="90" as="targetPoint"/>
          </mxGeometry>
        </mxCell>
        <mxCell id="02fX__gRrcT_8yHX7DRO-20" value="Maintains a" style="text;html=1;align=center;verticalAlign=middle;resizable=0;points=[];labelBackgroundColor=#ffffff;" vertex="1" connectable="0" parent="02fX__gRrcT_8yHX7DRO-15">
          <mxGeometry x="-0.4421" y="-2" relative="1" as="geometry">
            <mxPoint x="18.96" y="-1.17" as="offset"/>
          </mxGeometry>
        </mxCell>
        <mxCell id="02fX__gRrcT_8yHX7DRO-16" value="" style="endArrow=none;html=1;" edge="1" parent="1">
          <mxGeometry width="50" height="50" relative="1" as="geometry">
            <mxPoint x="330" y="140" as="sourcePoint"/>
            <mxPoint x="330" y="90" as="targetPoint"/>
          </mxGeometry>
        </mxCell>
        <mxCell id="02fX__gRrcT_8yHX7DRO-17" value="" style="endArrow=none;html=1;" edge="1" parent="1">
          <mxGeometry width="50" height="50" relative="1" as="geometry">
            <mxPoint x="80" y="140" as="sourcePoint"/>
            <mxPoint x="80" y="70" as="targetPoint"/>
          </mxGeometry>
        </mxCell>
        <mxCell id="02fX__gRrcT_8yHX7DRO-18" value="" style="endArrow=none;html=1;entryX=0;entryY=0.25;entryDx=0;entryDy=0;" edge="1" parent="1" target="02fX__gRrcT_8yHX7DRO-1">
          <mxGeometry width="50" height="50" relative="1" as="geometry">
            <mxPoint x="80" y="70" as="sourcePoint"/>
            <mxPoint x="350" y="70" as="targetPoint"/>
          </mxGeometry>
        </mxCell>
        <mxCell id="02fX__gRrcT_8yHX7DRO-19" value="Maintains a" style="text;html=1;align=center;verticalAlign=middle;resizable=0;points=[];labelBackgroundColor=#ffffff;" vertex="1" connectable="0" parent="02fX__gRrcT_8yHX7DRO-18">
          <mxGeometry x="-0.2889" y="-1" relative="1" as="geometry">
            <mxPoint as="offset"/>
          </mxGeometry>
        </mxCell>
        <mxCell id="02fX__gRrcT_8yHX7DRO-22" value="" style="endArrow=none;html=1;exitX=0.5;exitY=0;exitDx=0;exitDy=0;" edge="1" parent="1">
          <mxGeometry width="50" height="50" relative="1" as="geometry">
            <mxPoint x="930" y="290" as="sourcePoint"/>
            <mxPoint x="929.5" y="200" as="targetPoint"/>
            <Array as="points">
              <mxPoint x="930" y="220"/>
            </Array>
          </mxGeometry>
        </mxCell>
        <mxCell id="02fX__gRrcT_8yHX7DRO-23" value="&lt;div&gt;Collection&lt;/div&gt;&lt;div&gt;of&lt;br&gt;&lt;/div&gt;" style="text;html=1;align=center;verticalAlign=middle;resizable=0;points=[];labelBackgroundColor=#ffffff;" vertex="1" connectable="0" parent="02fX__gRrcT_8yHX7DRO-22">
          <mxGeometry x="0.5554" y="16" relative="1" as="geometry">
            <mxPoint x="14" y="16" as="offset"/>
          </mxGeometry>
        </mxCell>
        <mxCell id="02fX__gRrcT_8yHX7DRO-24" value="" style="endArrow=none;html=1;exitX=0.5;exitY=0;exitDx=0;exitDy=0;" edge="1" parent="1">
          <mxGeometry width="50" height="50" relative="1" as="geometry">
            <mxPoint x="690" y="290" as="sourcePoint"/>
            <mxPoint x="689.5" y="200" as="targetPoint"/>
            <Array as="points">
              <mxPoint x="690" y="220"/>
            </Array>
          </mxGeometry>
        </mxCell>
        <mxCell id="02fX__gRrcT_8yHX7DRO-25" value="&lt;div&gt;Collection&lt;/div&gt;&lt;div&gt;of&lt;br&gt;&lt;/div&gt;" style="text;html=1;align=center;verticalAlign=middle;resizable=0;points=[];labelBackgroundColor=#ffffff;" vertex="1" connectable="0" parent="02fX__gRrcT_8yHX7DRO-24">
          <mxGeometry x="0.5554" y="16" relative="1" as="geometry">
            <mxPoint x="14" y="16" as="offset"/>
          </mxGeometry>
        </mxCell>
        <mxCell id="02fX__gRrcT_8yHX7DRO-26" value="" style="endArrow=none;html=1;exitX=0.5;exitY=0;exitDx=0;exitDy=0;" edge="1" parent="1" source="02fX__gRrcT_8yHX7DRO-9">
          <mxGeometry width="50" height="50" relative="1" as="geometry">
            <mxPoint x="320" y="290" as="sourcePoint"/>
            <mxPoint x="319.5" y="200" as="targetPoint"/>
            <Array as="points">
              <mxPoint x="320" y="220"/>
            </Array>
          </mxGeometry>
        </mxCell>
        <mxCell id="02fX__gRrcT_8yHX7DRO-27" value="&lt;div&gt;Collection&lt;/div&gt;&lt;div&gt;of&lt;br&gt;&lt;/div&gt;" style="text;html=1;align=center;verticalAlign=middle;resizable=0;points=[];labelBackgroundColor=#ffffff;" vertex="1" connectable="0" parent="02fX__gRrcT_8yHX7DRO-26">
          <mxGeometry x="0.5554" y="16" relative="1" as="geometry">
            <mxPoint x="16" y="19.6" as="offset"/>
          </mxGeometry>
        </mxCell>
        <mxCell id="02fX__gRrcT_8yHX7DRO-29" value="" style="endArrow=none;html=1;" edge="1" parent="1">
          <mxGeometry width="50" height="50" relative="1" as="geometry">
            <mxPoint x="700" y="130" as="sourcePoint"/>
            <mxPoint x="700" y="90" as="targetPoint"/>
          </mxGeometry>
        </mxCell>
        <mxCell id="02fX__gRrcT_8yHX7DRO-30" value="" style="endArrow=none;html=1;" edge="1" parent="1">
          <mxGeometry width="50" height="50" relative="1" as="geometry">
            <mxPoint x="560" y="90" as="sourcePoint"/>
            <mxPoint x="700" y="90" as="targetPoint"/>
          </mxGeometry>
        </mxCell>
        <mxCell id="02fX__gRrcT_8yHX7DRO-42" value="Maintains a" style="text;html=1;align=center;verticalAlign=middle;resizable=0;points=[];labelBackgroundColor=#ffffff;" vertex="1" connectable="0" parent="02fX__gRrcT_8yHX7DRO-30">
          <mxGeometry x="0.2714" relative="1" as="geometry">
            <mxPoint as="offset"/>
          </mxGeometry>
        </mxCell>
        <mxCell id="02fX__gRrcT_8yHX7DRO-31" value="1" style="text;html=1;align=center;verticalAlign=middle;resizable=0;points=[];autosize=1;" vertex="1" parent="1">
          <mxGeometry x="420" y="40" width="20" height="20" as="geometry"/>
        </mxCell>
        <mxCell id="02fX__gRrcT_8yHX7DRO-32" value="1" style="text;html=1;align=center;verticalAlign=middle;resizable=0;points=[];autosize=1;" vertex="1" parent="1">
          <mxGeometry x="420" y="90" width="20" height="20" as="geometry"/>
        </mxCell>
        <mxCell id="02fX__gRrcT_8yHX7DRO-33" value="1" style="text;html=1;align=center;verticalAlign=middle;resizable=0;points=[];autosize=1;" vertex="1" parent="1">
          <mxGeometry x="330" y="120" width="20" height="20" as="geometry"/>
        </mxCell>
        <mxCell id="02fX__gRrcT_8yHX7DRO-34" value="1" style="text;html=1;align=center;verticalAlign=middle;resizable=0;points=[];autosize=1;" vertex="1" parent="1">
          <mxGeometry x="680" y="120" width="20" height="20" as="geometry"/>
        </mxCell>
        <mxCell id="02fX__gRrcT_8yHX7DRO-36" value="1" style="text;html=1;align=center;verticalAlign=middle;resizable=0;points=[];autosize=1;" vertex="1" parent="1">
          <mxGeometry x="560" y="90" width="20" height="20" as="geometry"/>
        </mxCell>
        <mxCell id="02fX__gRrcT_8yHX7DRO-37" value="1" style="text;html=1;align=center;verticalAlign=middle;resizable=0;points=[];autosize=1;" vertex="1" parent="1">
          <mxGeometry x="560" y="60" width="20" height="20" as="geometry"/>
        </mxCell>
        <mxCell id="02fX__gRrcT_8yHX7DRO-38" value="1" style="text;html=1;align=center;verticalAlign=middle;resizable=0;points=[];autosize=1;" vertex="1" parent="1">
          <mxGeometry x="910" y="120" width="20" height="20" as="geometry"/>
        </mxCell>
        <mxCell id="02fX__gRrcT_8yHX7DRO-39" value="" style="endArrow=none;html=1;" edge="1" parent="1">
          <mxGeometry width="50" height="50" relative="1" as="geometry">
            <mxPoint x="700" y="140" as="sourcePoint"/>
            <mxPoint x="700" y="130" as="targetPoint"/>
          </mxGeometry>
        </mxCell>
        <mxCell id="02fX__gRrcT_8yHX7DRO-43" value="1" style="text;html=1;align=center;verticalAlign=middle;resizable=0;points=[];autosize=1;" vertex="1" parent="1">
          <mxGeometry x="80" y="120" width="20" height="20" as="geometry"/>
        </mxCell>
        <mxCell id="02fX__gRrcT_8yHX7DRO-44" value="1" style="text;html=1;align=center;verticalAlign=middle;resizable=0;points=[];autosize=1;" vertex="1" parent="1">
          <mxGeometry x="130" y="200" width="20" height="20" as="geometry"/>
        </mxCell>
        <mxCell id="02fX__gRrcT_8yHX7DRO-45" value="1" style="text;html=1;align=center;verticalAlign=middle;resizable=0;points=[];autosize=1;" vertex="1" parent="1">
          <mxGeometry x="320" y="200" width="20" height="20" as="geometry"/>
        </mxCell>
        <mxCell id="02fX__gRrcT_8yHX7DRO-46" value="1" style="text;html=1;align=center;verticalAlign=middle;resizable=0;points=[];autosize=1;" vertex="1" parent="1">
          <mxGeometry x="690" y="200" width="20" height="20" as="geometry"/>
        </mxCell>
        <mxCell id="02fX__gRrcT_8yHX7DRO-47" value="1" style="text;html=1;align=center;verticalAlign=middle;resizable=0;points=[];autosize=1;" vertex="1" parent="1">
          <mxGeometry x="910" y="200" width="20" height="20" as="geometry"/>
        </mxCell>
        <mxCell id="02fX__gRrcT_8yHX7DRO-48" value="*" style="text;html=1;align=center;verticalAlign=middle;resizable=0;points=[];autosize=1;" vertex="1" parent="1">
          <mxGeometry x="910" y="270" width="20" height="20" as="geometry"/>
        </mxCell>
        <mxCell id="02fX__gRrcT_8yHX7DRO-49" value="*" style="text;html=1;align=center;verticalAlign=middle;resizable=0;points=[];autosize=1;" vertex="1" parent="1">
          <mxGeometry x="690" y="270" width="20" height="20" as="geometry"/>
        </mxCell>
        <mxCell id="02fX__gRrcT_8yHX7DRO-50" value="*" style="text;html=1;align=center;verticalAlign=middle;resizable=0;points=[];autosize=1;" vertex="1" parent="1">
          <mxGeometry x="320" y="300" width="20" height="20" as="geometry"/>
        </mxCell>
        <mxCell id="02fX__gRrcT_8yHX7DRO-51" value="*" style="text;html=1;align=center;verticalAlign=middle;resizable=0;points=[];autosize=1;" vertex="1" parent="1">
          <mxGeometry x="130" y="270" width="20" height="20" as="geometry"/>
        </mxCell>
        <mxCell id="02fX__gRrcT_8yHX7DRO-54" value="" style="endArrow=none;html=1;entryX=-0.025;entryY=0.117;entryDx=0;entryDy=0;entryPerimeter=0;" edge="1" parent="1" source="02fX__gRrcT_8yHX7DRO-87" target="02fX__gRrcT_8yHX7DRO-10">
          <mxGeometry width="50" height="50" relative="1" as="geometry">
            <mxPoint x="190" y="300" as="sourcePoint"/>
            <mxPoint x="400" y="300" as="targetPoint"/>
          </mxGeometry>
        </mxCell>
        <mxCell id="02fX__gRrcT_8yHX7DRO-58" value="" style="endArrow=none;html=1;entryX=0;entryY=0.5;entryDx=0;entryDy=0;exitX=1;exitY=0.5;exitDx=0;exitDy=0;" edge="1" parent="1" source="02fX__gRrcT_8yHX7DRO-10" target="02fX__gRrcT_8yHX7DRO-11">
          <mxGeometry width="50" height="50" relative="1" as="geometry">
            <mxPoint x="750" y="309.5" as="sourcePoint"/>
            <mxPoint x="880" y="305" as="targetPoint"/>
          </mxGeometry>
        </mxCell>
        <mxCell id="02fX__gRrcT_8yHX7DRO-59" value="Sign up for" style="text;html=1;align=center;verticalAlign=middle;resizable=0;points=[];labelBackgroundColor=#ffffff;" vertex="1" connectable="0" parent="02fX__gRrcT_8yHX7DRO-58">
          <mxGeometry x="-0.1694" relative="1" as="geometry">
            <mxPoint as="offset"/>
          </mxGeometry>
        </mxCell>
        <mxCell id="02fX__gRrcT_8yHX7DRO-60" value="" style="endArrow=none;html=1;" edge="1" parent="1">
          <mxGeometry width="50" height="50" relative="1" as="geometry">
            <mxPoint x="500" y="390" as="sourcePoint"/>
            <mxPoint x="499.5" y="340" as="targetPoint"/>
          </mxGeometry>
        </mxCell>
        <mxCell id="02fX__gRrcT_8yHX7DRO-62" value="Shift" style="swimlane;fontStyle=0;childLayout=stackLayout;horizontal=1;startSize=26;fillColor=none;horizontalStack=0;resizeParent=1;resizeParentMax=0;resizeLast=0;collapsible=1;marginBottom=0;" vertex="1" parent="1">
          <mxGeometry x="430" y="390" width="140" height="78" as="geometry"/>
        </mxCell>
        <mxCell id="02fX__gRrcT_8yHX7DRO-63" value="- role: String" style="text;strokeColor=none;fillColor=none;align=left;verticalAlign=top;spacingLeft=4;spacingRight=4;overflow=hidden;rotatable=0;points=[[0,0.5],[1,0.5]];portConstraint=eastwest;" vertex="1" parent="02fX__gRrcT_8yHX7DRO-62">
          <mxGeometry y="26" width="140" height="26" as="geometry"/>
        </mxCell>
        <mxCell id="02fX__gRrcT_8yHX7DRO-64" value="- breaks: String" style="text;strokeColor=none;fillColor=none;align=left;verticalAlign=top;spacingLeft=4;spacingRight=4;overflow=hidden;rotatable=0;points=[[0,0.5],[1,0.5]];portConstraint=eastwest;" vertex="1" parent="02fX__gRrcT_8yHX7DRO-62">
          <mxGeometry y="52" width="140" height="26" as="geometry"/>
        </mxCell>
        <mxCell id="02fX__gRrcT_8yHX7DRO-66" value="" style="endArrow=none;html=1;" edge="1" parent="1">
          <mxGeometry width="50" height="50" relative="1" as="geometry">
            <mxPoint x="800" y="380" as="sourcePoint"/>
            <mxPoint x="800" y="320" as="targetPoint"/>
          </mxGeometry>
        </mxCell>
        <mxCell id="02fX__gRrcT_8yHX7DRO-68" value="Ticket" style="swimlane;fontStyle=0;childLayout=stackLayout;horizontal=1;startSize=26;fillColor=none;horizontalStack=0;resizeParent=1;resizeParentMax=0;resizeLast=0;collapsible=1;marginBottom=0;" vertex="1" parent="1">
          <mxGeometry x="730" y="380" width="140" height="78" as="geometry"/>
        </mxCell>
        <mxCell id="02fX__gRrcT_8yHX7DRO-69" value="- seat: String" style="text;strokeColor=none;fillColor=none;align=left;verticalAlign=top;spacingLeft=4;spacingRight=4;overflow=hidden;rotatable=0;points=[[0,0.5],[1,0.5]];portConstraint=eastwest;" vertex="1" parent="02fX__gRrcT_8yHX7DRO-68">
          <mxGeometry y="26" width="140" height="26" as="geometry"/>
        </mxCell>
        <mxCell id="02fX__gRrcT_8yHX7DRO-70" value="- preferences: String" style="text;strokeColor=none;fillColor=none;align=left;verticalAlign=top;spacingLeft=4;spacingRight=4;overflow=hidden;rotatable=0;points=[[0,0.5],[1,0.5]];portConstraint=eastwest;" vertex="1" parent="02fX__gRrcT_8yHX7DRO-68">
          <mxGeometry y="52" width="140" height="26" as="geometry"/>
        </mxCell>
        <mxCell id="02fX__gRrcT_8yHX7DRO-72" value="" style="endArrow=none;html=1;" edge="1" parent="1">
          <mxGeometry width="50" height="50" relative="1" as="geometry">
            <mxPoint x="470" y="300" as="sourcePoint"/>
            <mxPoint x="470" y="220" as="targetPoint"/>
          </mxGeometry>
        </mxCell>
        <mxCell id="02fX__gRrcT_8yHX7DRO-74" value="AircraftUsage" style="swimlane;fontStyle=0;childLayout=stackLayout;horizontal=1;startSize=26;fillColor=none;horizontalStack=0;resizeParent=1;resizeParentMax=0;resizeLast=0;collapsible=1;marginBottom=0;" vertex="1" parent="1">
          <mxGeometry x="410" y="140" width="140" height="78" as="geometry"/>
        </mxCell>
        <mxCell id="02fX__gRrcT_8yHX7DRO-75" value="- timesOccupied: String" style="text;strokeColor=none;fillColor=none;align=left;verticalAlign=top;spacingLeft=4;spacingRight=4;overflow=hidden;rotatable=0;points=[[0,0.5],[1,0.5]];portConstraint=eastwest;" vertex="1" parent="02fX__gRrcT_8yHX7DRO-74">
          <mxGeometry y="26" width="140" height="26" as="geometry"/>
        </mxCell>
        <mxCell id="02fX__gRrcT_8yHX7DRO-76" value="- locations: String" style="text;strokeColor=none;fillColor=none;align=left;verticalAlign=top;spacingLeft=4;spacingRight=4;overflow=hidden;rotatable=0;points=[[0,0.5],[1,0.5]];portConstraint=eastwest;" vertex="1" parent="02fX__gRrcT_8yHX7DRO-74">
          <mxGeometry y="52" width="140" height="26" as="geometry"/>
        </mxCell>
        <mxCell id="02fX__gRrcT_8yHX7DRO-83" value="*" style="text;html=1;align=center;verticalAlign=middle;resizable=0;points=[];autosize=1;" vertex="1" parent="1">
          <mxGeometry x="860" y="300" width="20" height="20" as="geometry"/>
        </mxCell>
        <mxCell id="02fX__gRrcT_8yHX7DRO-84" value="*" style="text;html=1;align=center;verticalAlign=middle;resizable=0;points=[];autosize=1;" vertex="1" parent="1">
          <mxGeometry x="750" y="300" width="20" height="20" as="geometry"/>
        </mxCell>
        <mxCell id="02fX__gRrcT_8yHX7DRO-86" value="*" style="text;html=1;align=center;verticalAlign=middle;resizable=0;points=[];autosize=1;" vertex="1" parent="1">
          <mxGeometry x="380" y="340" width="20" height="20" as="geometry"/>
        </mxCell>
        <mxCell id="02fX__gRrcT_8yHX7DRO-88" value="*" style="text;html=1;align=center;verticalAlign=middle;resizable=0;points=[];autosize=1;" vertex="1" parent="1">
          <mxGeometry x="190" y="300" width="20" height="20" as="geometry"/>
        </mxCell>
        <mxCell id="02fX__gRrcT_8yHX7DRO-87" value="*" style="text;html=1;align=center;verticalAlign=middle;resizable=0;points=[];autosize=1;" vertex="1" parent="1">
          <mxGeometry x="610" y="300" width="20" height="20" as="geometry"/>
        </mxCell>
        <mxCell id="02fX__gRrcT_8yHX7DRO-89" value="" style="endArrow=none;html=1;entryX=1.1;entryY=0.05;entryDx=0;entryDy=0;entryPerimeter=0;" edge="1" parent="1" target="02fX__gRrcT_8yHX7DRO-87">
          <mxGeometry width="50" height="50" relative="1" as="geometry">
            <mxPoint x="190" y="300" as="sourcePoint"/>
            <mxPoint x="627" y="297.02" as="targetPoint"/>
          </mxGeometry>
        </mxCell>
        <mxCell id="02fX__gRrcT_8yHX7DRO-90" value="Are assigned to" style="text;html=1;align=center;verticalAlign=middle;resizable=0;points=[];labelBackgroundColor=#ffffff;" vertex="1" connectable="0" parent="02fX__gRrcT_8yHX7DRO-89">
          <mxGeometry x="0.222" relative="1" as="geometry">
            <mxPoint as="offset"/>
          </mxGeometry>
        </mxCell>
        <mxCell id="02fX__gRrcT_8yHX7DRO-85" value="*" style="text;html=1;align=center;verticalAlign=middle;resizable=0;points=[];autosize=1;" vertex="1" parent="1">
          <mxGeometry x="610" y="340" width="20" height="20" as="geometry"/>
        </mxCell>
        <mxCell id="02fX__gRrcT_8yHX7DRO-91" value="Works on" style="endArrow=none;html=1;" edge="1" parent="1">
          <mxGeometry width="50" height="50" relative="1" as="geometry">
            <mxPoint x="380" y="340" as="sourcePoint"/>
            <mxPoint x="628" y="340" as="targetPoint"/>
          </mxGeometry>
        </mxCell>
      </root>
    </mxGraphModel>
  </diagram>
</mxfile>
